# xmcd CD database file
#
# Track frame offsets:
#	150
#	21530
#	52435
#	76099
#	96045
#	122738
#	140274
#	170828
#	195876
#	220985
#
# Disc length: 3236 seconds
#
# Revision: 0
# Processed by: cddbd v1.5.2PL0 Copyright (c) Steve Scherf et al.
# Submitted via: CDex 1.51
#
DISCID=8d0ca20a
DTITLE=Irakere - CubaJazz, 5
DYEAR=2007
DGENRE=Jazz
TTITLE0=Adagio Para Clarinete
TTITLE1=Chekere Que Son
TTITLE2=38 y medio
TTITLE3=En Nosotros
TTITLE4=Juana 1600
TTITLE5=Moja El Pan
TTITLE6=Este Camino Largo
TTITLE7=Xiomar Mayoral
TTITLE8=!Ya
TTITLE9=Sommertime
EXTD=YEAR: 2007
EXTT0=
EXTT1=
EXTT2=
EXTT3=
EXTT4=
EXTT5=
EXTT6=
EXTT7=
EXTT8=
EXTT9=
PLAYORDER=
